<?xml version="1.0" encoding="utf-8"?>
<!-- Generator: Adobe Illustrator 16.0.3, SVG Export Plug-In . SVG Version: 6.00 Build 0)  -->
<!DOCTYPE svg PUBLIC "-//W3C//DTD SVG 1.1//EN" "http://www.w3.org/Graphics/SVG/1.1/DTD/svg11.dtd">
<svg version="1.1" id="Layer_1" xmlns="http://www.w3.org/2000/svg" xmlns:xlink="http://www.w3.org/1999/xlink" x="0px" y="0px"
	 width="227.5px" height="227px" viewBox="0 0 227.5 227" enable-background="new 0 0 227.5 227" xml:space="preserve">
<circle cx="113.5" cy="113.5" r="111.333"/>
<path fill-rule="evenodd" clip-rule="evenodd" fill="#FFFFFF" d="M224.796,106.836c-1.589-2.981-3.219-5.943-4.893-8.879
	c-1.318-2.312-3.088-4.414-4.107-6.84c-1.072-2.548-1.748-5.341-2.063-8.088c-0.119-1.044,1.018-2.793,2.013-3.223
	c0.76-0.329,2.45,0.671,3.27,1.521c0.929,0.963,1.367,2.41,1.983,3.664c0.229,0.466,0.449,0.936,0.675,1.403
	c-1.269-5.081-2.888-10.022-4.827-14.799c-0.57-0.661-0.917-1.415-0.929-2.221c-1.063-2.466-2.214-4.886-3.447-7.256
	c-2.233,1.048-4.527,0.831-6.651-0.55c-2.442-1.587-2.946-4.142-2.28-6.878c0.408-1.676,0.973-3.318,1.405-4.985
	c-3.598-5.147-7.619-9.977-12.014-14.438c-0.366,0.364-0.75,0.809-1.164,1.352c-0.735,0.962-1.287,2.169-1.577,3.348
	c-1.29,5.242,0.052,8.765,4.572,11.88c2.225,1.534,3.831,3.392,4.506,6.05c0.847,3.333,0.172,5.377-2.3,6.615
	c-2.299,1.151-4.903,0.455-6.773-2.119c-1.163-1.602-1.979-3.458-2.927-5.213c-1.913-3.537-4.596-6.214-8.861-5.683
	c-4.107,0.512-6.539,3.478-7.801,7.255c-1.894,5.67,2.309,10.982,8.195,10.37c1.711-0.178,3.396-0.766,5.051-1.294
	c3.645-1.162,6.635-0.512,8.094,1.856c2.086,3.387,1.154,7.349-2.105,9.666c-2.883,2.05-5.95,1.746-9.115,1.103
	c-2.457-0.499-4.872-0.546-6.71,1.523c-3.665,4.123-2.637,10.555,2.092,13.434c6.967,4.24,15.998,0.206,17.288-7.722
	c0.067-0.41,0.146-0.822,0.269-1.219c1.057-3.414,3.411-4.201,6.285-2.068c4.388,3.256,6.345,7.83,6.834,13.1
	c0.804,8.677-6.247,14.842-14.646,12.521c-6.08-1.681-12.004-3.935-17.972-6.007c-3.441-1.195-6.822-1.498-10.193,0.148
	c-2.992,1.461-5.971,2.952-8.967,4.405c-4.128,2.003-8.273,2.682-12.777,0.947c-5.163-1.987-9.624-4.982-13.531-8.768
	c-5.861-5.678-11.542-11.542-17.292-17.334c-9.963-10.038-21.699-13.876-35.772-11.051c-10.273,2.063-20.223,5.004-29.697,9.368
	c-7.014,3.23-13.836,6.911-20.546,10.74c-1.859,1.061-3.697,3.137-4.364,5.139c-2.652,7.964-1.88,15.592,4.319,21.796
	c9.914,9.924,20.78,18.554,34.383,22.952c7.929,2.564,15.905,3.439,23.949,0.094c3.601-1.498,7.349-2.763,11.142-3.658
	c9.635-2.275,19.016-2.049,27.621,3.725c4.291,2.879,5.053,5.224,3.022,9.914c-2.261,5.222-3.339,10.642-2.614,16.323
	c0.271,2.139,0.762,4.256,1.246,6.361c1.295,5.624-0.588,9.603-6.264,10.381c-5.264,0.723-10.74,0.032-16.108-0.287
	c-0.689-0.041-1.731-1.55-1.823-2.459c-0.125-1.241,0.346-2.625,0.842-3.832c1.508-3.676,4.323-5.947,7.98-7.448
	c3.643-1.496,4.414-4.017,2.555-7.447c-1.811-3.339-4.802-5.239-8.257-6.484c-2.503-0.902-4.854,0.157-5.489,2.731
	c-0.381,1.549-0.131,3.266-0.088,4.905c0.056,2.145,0.559,4.351,0.209,6.419c-0.753,4.464-5.186,6.807-9.058,5.098
	c-2.886-1.274-5.654-5.657-5.604-8.876c0.023-1.498,0.176-3.006,0.049-4.491c-0.329-3.871-2.808-5.464-6.449-3.997
	c-4.267,1.72-7.414,4.757-9.244,9.005c-1.225,2.845,0.044,6.542,2.873,7.963c1.512,0.76,3.346,0.851,4.991,1.379
	c2.338,0.75,4.724,1.442,6.92,2.506c1.758,0.851,2.752,2.468,2.019,4.582c-0.742,2.14-2.181,3.686-4.526,3.677
	c-1.624-0.006-3.297-0.435-4.857-0.95c-3.082-1.02-6.044-2.438-9.168-3.27c-1.445-0.386-3.428-0.263-4.692,0.46
	c-3.917,2.238-4.675,7.221-2.017,11.116c3.006,4.403,7.521,5.555,11.365,2.814c1.282-0.915,2.396-2.062,3.607-3.079
	c2.777-2.332,6.758-2.522,9.742-0.502c1.318,0.893,1.879,2.254,0.869,3.405c-1.596,1.819-3.315,3.858-5.43,4.833
	c-6.247,2.88-6.103,11.77-1.941,15.658c1.678,0.579,3.374,1.118,5.087,1.619c1.065-0.267,2.049-0.931,2.817-2.033
	c1.193-1.715,1.897-3.855,2.457-5.905c0.588-2.154,0.6-4.462,1.125-6.639c0.537-2.229,1.445-4.401,4.211-4.609
	c1.688-0.128,4.187,2.231,4.841,4.535c0.337,1.187,0.331,2.468,0.52,3.699c0.252,1.642,0.169,3.479,0.919,4.857
	c0.8,1.469,2.195,3.072,3.695,3.618c5.488,1.996,9.846-0.706,11.201-6.551c1.377-5.927-1.053-9.589-6.883-10.777
	c-1.824-0.372-3.611-1.204-5.239-2.134c-0.703-0.402-1.501-1.783-1.287-2.367c0.29-0.795,1.521-1.778,2.321-1.756
	c2.295,0.063,4.631,0.395,6.853,0.985c4.019,1.067,7.927,2.555,11.953,3.587c8.339,2.139,14.884-1.089,17.296-9.239
	c1.587-5.357,1.913-11.088,2.818-16.649c0.506-3.107,0.954-6.229,1.625-9.302c0.158-0.725,1.258-1.881,1.66-1.78
	c0.812,0.202,1.8,1.002,2.083,1.784c0.904,2.496,1.644,5.069,2.225,7.663c2.068,9.251,3.649,18.634,6.203,27.747
	c1.429,5.096,3.995,9.872,6.222,14.744c22.979-11.066,41.573-29.782,52.496-52.842c-5.942-10.982-14.047-20.031-24.698-26.742
	c-2.353-1.482-4.802-3.007-4.208-6.401c0.371-2.117,2.865-3.603,6.843-3.363c4.211,0.253,8.407,1.032,12.563,1.823
	c3.672,0.697,7.238,2.059,10.928,2.536c3.645,0.472,6.621-0.647,8.54-2.901c0.468-4.145,0.716-8.354,0.716-12.623
	C225,111.268,224.926,109.044,224.796,106.836z"/>
</svg>
